<?xml version="1.0" encoding="UTF-8" standalone="no"?>
<svg
   xmlns:dc="http://purl.org/dc/elements/1.1/"
   xmlns:cc="http://creativecommons.org/ns#"
   xmlns:rdf="http://www.w3.org/1999/02/22-rdf-syntax-ns#"
   xmlns:svg="http://www.w3.org/2000/svg"
   xmlns="http://www.w3.org/2000/svg"
   version="1.1"
   id="svg12751"
   viewBox="0 0 126.643 191.218"
   height="53.9662mm"
   width="35.7414mm">
  <defs
     id="defs12753">
    <clipPath
       id="clipPath2226"
       clipPathUnits="userSpaceOnUse">
      <path
         id="path2228"
         d="m 476.943,571.974 55.143,0 0,-152.974 -55.143,0 0,152.974 z" />
    </clipPath>
    <clipPath
       id="clipPath2174"
       clipPathUnits="userSpaceOnUse">
      <path
         id="path2176"
         d="m 505.16,562.127 10.837,0 0,-18.633 -10.837,0 0,18.633 z" />
    </clipPath>
    <clipPath
       id="clipPath2154"
       clipPathUnits="userSpaceOnUse">
      <path
         id="path2156"
         d="m 438.268,562.127 10.837,0 0,-18.632 -10.837,0 0,18.632 z" />
    </clipPath>
  </defs>
  <metadata
     id="metadata12756">
    <rdf:RDF>
      <cc:Work
         rdf:about="">
        <dc:format>image/svg+xml</dc:format>
        <dc:type
           rdf:resource="http://purl.org/dc/dcmitype/StillImage" />
        <dc:title></dc:title>
      </cc:Work>
    </rdf:RDF>
  </metadata>
  <g
     transform="translate(-119.536,-665.323)"
     id="layer1">
    <g
       transform="matrix(1.25,0,0,-1.25,142.44,691.441)"
       id="g2146">
      <path
         id="path2148"
         style="fill:#583b2b;fill-opacity:1;fill-rule:nonzero;stroke:none"
         d="M 0,0 C -2.127,3.903 -5.478,9.828 -6.798,10.928 -8.728,12.537 -14.202,-2.767 -7.865,-7.587 -5.552,-4.759 -2.91,-2.213 0,0" />
    </g>
    <g
       id="g2150"
       transform="matrix(1.25,0,0,-1.25,-418.94,1380.29)">
      <g
         id="g2152" />
      <g
         id="g2158">
        <g
           style="opacity:0.600006"
           id="g2160"
           clip-path="url(#clipPath2154)">
          <g
             id="g2162"
             transform="translate(449.105,551.081)">
            <path
               id="path2164"
               style="fill:#ab6609;fill-opacity:1;fill-rule:nonzero;stroke:none"
               d="M 0,0 C -2.127,3.903 -5.478,9.828 -6.798,10.928 -8.728,12.537 -14.202,-2.767 -7.865,-7.587 -5.552,-4.759 -2.91,-2.213 0,0" />
          </g>
        </g>
      </g>
    </g>
    <g
       transform="matrix(1.25,0,0,-1.25,222.341,700.924)"
       id="g2166">
      <path
         id="path2168"
         style="fill:#583b2b;fill-opacity:1;fill-rule:nonzero;stroke:none"
         d="M 0,0 C 6.337,4.819 0.862,20.124 -1.067,18.515 -2.387,17.415 -5.738,11.491 -7.865,7.587 -4.955,5.374 -2.314,2.828 0,0" />
    </g>
    <g
       id="g2170"
       transform="matrix(1.25,0,0,-1.25,-418.94,1380.29)">
      <g
         id="g2172" />
      <g
         id="g2178">
        <g
           style="opacity:0.600006"
           id="g2180"
           clip-path="url(#clipPath2174)">
          <g
             id="g2182"
             transform="translate(513.025,543.494)">
            <path
               id="path2184"
               style="fill:#ab6609;fill-opacity:1;fill-rule:nonzero;stroke:none"
               d="M 0,0 C 6.337,4.819 0.862,20.124 -1.067,18.515 -2.387,17.415 -5.738,11.491 -7.865,7.587 -4.955,5.374 -2.314,2.828 0,0" />
          </g>
        </g>
      </g>
    </g>
    <g
       transform="matrix(1.25,0,0,-1.25,136.673,717.066)"
       id="g2186">
      <path
         id="path2188"
         style="fill:#583b2b;fill-opacity:1;fill-rule:nonzero;stroke:none"
         d="M 0,0 C 5.68,13.12 15.701,12.921 22.512,10.938 30.769,8.533 33.5,-2.122 31.439,-11.4 29.376,-20.68 4.976,-28.928 0,-26.522 -4.976,-24.116 -5.678,-13.119 0,0 m -2.184,31.429 c 1.32,-1.1 4.671,-7.025 6.798,-10.928 -2.91,-2.213 -5.551,-4.759 -7.865,-7.587 -6.337,4.819 -0.862,20.124 1.067,18.515 M 48.754,3.348 c 5.373,0.192 9.882,-4.007 10.076,-9.379 0.191,-5.372 -4.007,-9.884 -9.382,-10.076 -5.371,-0.189 -9.88,4.009 -10.07,9.381 -0.194,5.372 4.006,9.883 9.376,10.074 m 18.713,28.081 c 1.93,1.609 7.404,-13.696 1.067,-18.516 -2.313,2.828 -4.955,5.375 -7.865,7.587 2.127,3.904 5.478,9.829 6.798,10.929 M 47.546,-55.369 c -6.759,0 -12.432,3.923 -14.1,9.242 -1.667,-5.319 -7.339,-9.242 -14.1,-9.242 -8.068,0 -14.611,5.581 -14.611,12.465 0,6.885 6.543,12.466 14.611,12.466 0.652,0 1.29,-0.049 1.92,-0.12 -0.013,0.119 -0.04,0.247 -0.04,0.36 0,4.024 3.373,7.807 12.222,7.807 8.847,0 12.221,-3.783 12.221,-7.807 0,-0.113 -0.027,-0.241 -0.04,-0.36 0.629,0.071 1.266,0.12 1.917,0.12 8.07,0 14.612,-5.581 14.612,-12.466 0,-6.884 -6.542,-12.465 -14.612,-12.465 m -14.904,-7.394 c 14.419,0 27.298,6.585 35.799,16.909 6.592,8.007 10.552,18.262 10.552,29.443 0,8.233 -2.156,15.958 -5.92,22.66 10.123,8.394 3.561,38.442 -4.887,34.847 C 61.024,38.047 55.14,28.264 53.358,25.051 47.122,28.173 40.09,29.94 32.642,29.94 c -7.449,0 -14.481,-1.767 -20.717,-4.888 -1.781,3.213 -7.666,12.995 -14.828,16.044 -8.448,3.595 -15.01,-26.453 -4.887,-34.847 -3.764,-6.701 -5.92,-14.427 -5.92,-22.66 0,-11.181 3.96,-21.437 10.552,-29.443 8.501,-10.325 21.381,-16.909 35.8,-16.909" />
    </g>
    <g
       transform="matrix(1.25,0,0,-1.25,156.952,712.882)"
       id="g2190">
      <path
         id="path2192"
         style="fill:#ab6609;fill-opacity:1;fill-rule:nonzero;stroke:none"
         d="m 0,0 c 5.369,-0.19 9.568,-4.701 9.375,-10.074 -0.191,-5.371 -4.7,-9.57 -10.071,-9.381 -5.374,0.193 -9.573,4.704 -9.381,10.076 C -9.884,-4.006 -5.375,0.193 0,0 m -16.223,-29.869 c 4.976,-2.406 29.376,5.842 31.439,15.121 2.061,9.278 -0.67,19.933 -8.927,22.338 -6.811,1.984 -16.832,2.182 -22.512,-10.938 -5.677,-13.118 -4.975,-24.116 0,-26.521" />
    </g>
    <g
       transform="matrix(1.25,0,0,-1.25,157.809,720.218)"
       id="g2194">
      <path
         id="path2196"
         style="fill:#ffffff;fill-opacity:1;fill-rule:nonzero;stroke:none"
         d="M 0,0 C 2.815,-0.672 3.473,-3.185 2.718,-5.305 2.282,-4.704 1.597,-4.23 0.612,-3.995 -2.045,-3.361 -4.089,-5.172 -4.701,-7.212 -7.196,-4.57 -4.585,1.093 0,0 m -1.383,-13.586 c 5.371,-0.189 9.88,4.01 10.072,9.381 0.193,5.373 -4.006,9.884 -9.375,10.074 -5.375,0.193 -9.884,-4.006 -10.078,-9.379 -0.191,-5.372 4.007,-9.883 9.381,-10.076" />
    </g>
    <g
       transform="matrix(1.25,0,0,-1.25,158.575,725.212)"
       id="g2198">
      <path
         id="path2200"
         style="fill:#353a42;fill-opacity:1;fill-rule:nonzero;stroke:none"
         d="M 0,0 C 0.984,-0.235 1.67,-0.709 2.105,-1.31 2.86,0.81 2.203,3.323 -0.612,3.995 -5.197,5.088 -7.809,-0.575 -5.314,-3.217 -4.701,-1.177 -2.657,0.634 0,0" />
    </g>
    <g
       transform="matrix(1.25,0,0,-1.25,196.758,720.218)"
       id="g2202">
      <path
         id="path2204"
         style="fill:#ffffff;fill-opacity:1;fill-rule:nonzero;stroke:none"
         d="M 0,0 C 4.583,1.093 7.193,-4.57 4.7,-7.212 4.087,-5.172 2.044,-3.361 -0.613,-3.995 -1.6,-4.23 -2.284,-4.704 -2.72,-5.305 -3.474,-3.185 -2.816,-0.672 0,0 m 1.381,-13.586 c 5.375,0.193 9.572,4.704 9.382,10.076 C 10.568,1.863 6.06,6.062 0.686,5.869 -4.684,5.679 -8.884,1.168 -8.69,-4.205 c 0.191,-5.371 4.7,-9.57 10.071,-9.381" />
    </g>
    <g
       transform="matrix(1.25,0,0,-1.25,195.99,725.212)"
       id="g2206">
      <path
         id="path2208"
         style="fill:#353a42;fill-opacity:1;fill-rule:nonzero;stroke:none"
         d="M 0,0 C 2.657,0.634 4.7,-1.177 5.314,-3.217 7.807,-0.575 5.196,5.088 0.613,3.995 -2.203,3.323 -2.86,0.81 -2.106,-1.31 -1.671,-0.709 -0.986,-0.235 0,0" />
    </g>
    <g
       transform="matrix(1.25,0,0,-1.25,196.105,755.113)"
       id="g2210">
      <path
         id="path2212"
         style="fill:#ab6609;fill-opacity:1;fill-rule:nonzero;stroke:none"
         d="m 0,0 c -0.651,0 -1.288,-0.049 -1.917,-0.12 -0.415,-4.137 -7.871,-11.972 -12.181,-11.972 -4.312,0 -11.767,7.835 -12.182,11.972 -0.63,0.071 -1.268,0.12 -1.92,0.12 -8.068,0 -14.61,-5.581 -14.61,-12.466 0,-6.884 6.542,-12.465 14.61,-12.465 6.761,0 12.433,3.923 14.1,9.242 1.668,-5.319 7.341,-9.242 14.1,-9.242 8.07,0 14.612,5.581 14.612,12.465 C 14.612,-5.581 8.07,0 0,0" />
    </g>
    <g
       transform="matrix(1.25,0,0,-1.25,178.483,770.228)"
       id="g2214">
      <path
         id="path2216"
         style="fill:#160f0b;fill-opacity:1;fill-rule:nonzero;stroke:none"
         d="m 0,0 c 4.31,0 11.766,7.835 12.181,11.972 0.012,0.119 0.04,0.247 0.04,0.359 0,4.025 -3.374,7.808 -12.221,7.808 -8.85,0 -12.223,-3.783 -12.223,-7.808 0,-0.112 0.028,-0.24 0.04,-0.359 C -11.768,7.835 -4.312,0 0,0" />
    </g>
    <g
       transform="matrix(1.25,0,0,-1.25,244.118,758.196)"
       id="g2218">
      <path
         id="path2220"
         style="fill:#422c20;fill-opacity:1;fill-rule:nonzero;stroke:none"
         d="m 0,0 c -1.596,-12.233 -12.309,-17.838 -16.577,-19.606 -0.109,2.28 -0.433,4.503 -0.938,6.656 -8.502,-10.324 -21.38,-16.909 -35.799,-16.909 -14.419,0 -27.299,6.584 -35.8,16.909 -0.636,-2.71 -0.954,-5.53 -0.954,-8.433 0,-8.419 2.621,-16.172 7.621,-22.371 l 0,-28.922 c 0,-3.314 2.63,-6.001 5.943,-6.001 l 6,0 c 3.314,0 6.057,2.687 6.057,6.001 l 0,16.249 c 3,-1.126 7.287,-1.739 11.189,-1.739 4.133,0 7.811,0.692 11.811,1.95 l 0,-16.46 c 0,-3.314 2.63,-6.001 5.943,-6.001 l 6,0 c 3.314,0 6.057,2.687 6.057,6.001 l 0,29.758 c 3,4.876 5.858,10.648 6.643,16.913 5.786,2.089 13.158,6.08 16.152,11.338 C 4.111,-6.302 0,0 0,0" />
    </g>
    <g
       id="g2222"
       transform="matrix(1.25,0,0,-1.25,-418.94,1380.29)">
      <g
         id="g2224" />
      <g
         id="g2230">
        <g
           style="opacity:0.300003"
           id="g2232"
           clip-path="url(#clipPath2226)">
          <g
             id="g2234"
             transform="translate(530.447,497.677)">
            <path
               id="path2236"
               style="fill:#ffffff;fill-opacity:1;fill-rule:nonzero;stroke:none"
               d="m 0,0 c -1.596,-12.233 -12.309,-17.838 -16.577,-19.606 -0.109,2.28 -0.433,4.503 -0.939,6.656 6.593,8.007 10.553,18.262 10.553,29.443 0,8.232 -2.156,15.958 -5.92,22.66 10.123,8.394 3.561,38.442 -4.887,34.846 -7.162,-3.048 -13.046,-12.831 -14.828,-16.044 -6.236,3.122 -13.267,4.889 -20.716,4.889 -0.064,0 -0.126,-0.01 -0.19,-0.01 l 0,-121.001 c 0.064,0 0.126,0 0.19,0 4.132,0 8.101,0.692 11.81,1.95 l 0,-16.46 c 0,-3.314 2.687,-6.001 6,-6.001 l 6,0 c 3.314,0 6,2.687 6,6.001 l 0,29.758 c 3.528,4.876 5.887,10.648 6.672,16.913 5.787,2.089 13.171,6.08 16.165,11.338 C 4.098,-6.302 0,0 0,0" />
          </g>
        </g>
      </g>
    </g>
  </g>
</svg>
