<?xml version="1.0" encoding="UTF-8" standalone="no"?>
<svg
   xmlns:dc="http://purl.org/dc/elements/1.1/"
   xmlns:cc="http://creativecommons.org/ns#"
   xmlns:rdf="http://www.w3.org/1999/02/22-rdf-syntax-ns#"
   xmlns:svg="http://www.w3.org/2000/svg"
   xmlns="http://www.w3.org/2000/svg"
   version="1.1"
   id="svg12065"
   viewBox="0 0 156.498 192.707"
   height="54.3862mm"
   width="44.1671mm">
  <defs
     id="defs12067">
    <clipPath
       id="clipPath2772"
       clipPathUnits="userSpaceOnUse">
      <path
         id="path2774"
         d="m 641.943,566.987 71.395,0 0,-147.987 -71.395,0 0,147.987 z" />
    </clipPath>
  </defs>
  <metadata
     id="metadata12070">
    <rdf:RDF>
      <cc:Work
         rdf:about="">
        <dc:format>image/svg+xml</dc:format>
        <dc:type
           rdf:resource="http://purl.org/dc/dcmitype/StillImage" />
        <dc:title></dc:title>
      </cc:Work>
    </rdf:RDF>
  </metadata>
  <g
     transform="translate(-1313.18,-738.866)"
     id="layer1">
    <g
       transform="matrix(1.25,0,0,-1.25,1457.52,832.673)"
       id="g2704">
      <path
         id="path2706"
         style="fill:#db853a;fill-opacity:1;fill-rule:nonzero;stroke:none"
         d="m 0,0 c -12.462,4.576 -24.185,-10.801 -29.307,-18.852 0.729,-1.46 1.431,-3.112 2.071,-4.997 0.773,-2.282 1.39,-4.74 1.868,-7.351 3.36,5.432 8.905,13.951 13.034,18.08 6.333,6.333 9.667,3 15,0.5 5.333,-2.5 14,6.5 -2.666,12.62" />
    </g>
    <g
       transform="matrix(1.25,0,0,-1.25,1317.93,788.448)"
       id="g2708">
      <path
         id="path2710"
         style="fill:#ffd6bc;fill-opacity:1;fill-rule:nonzero;stroke:none"
         d="M 0,0 C 0,-2.977 2.367,-5.396 5.321,-5.491 6.099,-2.026 7.259,1.294 8.773,4.413 7.857,5.093 6.728,5.5 5.5,5.5 2.463,5.5 0,3.038 0,0" />
    </g>
    <g
       transform="matrix(1.25,0,0,-1.25,1442.93,788.448)"
       id="g2712">
      <path
         id="path2714"
         style="fill:#ffd6bc;fill-opacity:1;fill-rule:nonzero;stroke:none"
         d="M 0,0 C 0,3.038 -2.463,5.5 -5.5,5.5 -6.761,5.5 -7.919,5.071 -8.847,4.357 -7.345,1.253 -6.194,-2.05 -5.421,-5.496 -2.421,-5.454 0,-3.011 0,0" />
    </g>
    <g
       transform="matrix(1.25,0,0,-1.25,1349.76,918.797)"
       id="g2716">
      <path
         id="path2718"
         style="fill:#cf7128;fill-opacity:1;fill-rule:nonzero;stroke:none"
         d="m 0,0 c -0.262,0.88 -0.407,1.796 -0.407,2.727 l 0,7.119 c 0,4.227 0.48,7.912 1.344,10.953 -2.26,3.961 -3.573,8.541 -3.573,13.427 0,5.467 1.615,10.552 4.398,14.812 -2.576,1.478 -4.996,3.198 -7.225,5.131 -1.569,-2.201 -3.189,-5.158 -4.532,-9.119 -3.66,-10.795 -4.016,-25.313 -1.054,-43.149 0.61,-3.67 3.786,-6.273 7.389,-6.272 0.408,0 0.85,0.033 1.266,0.102 0.696,0.116 0.987,0.33 1.987,0.616 l 0,2.145 c 0,0.573 0.154,1.073 0.407,1.508" />
    </g>
    <g
       transform="matrix(1.25,0,0,-1.25,1420.88,856.238)"
       id="g2720">
      <path
         id="path2722"
         style="fill:#cf7128;fill-opacity:1;fill-rule:nonzero;stroke:none"
         d="m 0,0 c -0.803,1.607 -1.637,2.969 -2.459,4.122 -2.23,-1.934 -4.647,-3.653 -7.223,-5.132 2.782,-4.259 4.404,-9.344 4.404,-14.811 0,-4.827 -1.239,-9.357 -3.449,-13.284 0.879,-3.068 1.423,-6.803 1.423,-11.096 l 0,-7.119 c 0,-0.903 -0.135,-1.792 -0.375,-2.647 0.234,-0.452 0.375,-0.978 0.375,-1.588 l 0,-2.19 c 1,-0.262 1.171,-0.462 1.829,-0.571 0.416,-0.069 0.816,-0.102 1.224,-0.102 3.602,0 6.772,2.602 7.382,6.273 2.335,14.066 2.596,26.058 0.811,35.798 -0.477,2.61 -1.096,5.069 -1.87,7.35 C 1.433,-3.111 0.728,-1.46 0,0" />
    </g>
    <g
       transform="matrix(1.25,0,0,-1.25,1368.5,916.573)"
       id="g2724">
      <path
         id="path2726"
         style="fill:#ffd6bc;fill-opacity:1;fill-rule:nonzero;stroke:none"
         d="M 0,0 -0.506,0 C -1.352,0 -2.158,-0.214 -2.825,-0.597 -3.413,-0.214 -4.151,0 -4.998,0 L -5.506,0 C -6.596,0 -7.623,-0.346 -8.359,-0.967 -8.992,-0.346 -9.91,0 -11,0 l -0.506,0 c -1.495,0 -2.851,-0.645 -3.51,-1.779 -0.252,-0.435 -0.378,-0.935 -0.378,-1.508 l 0,-2.145 0,-2.362 c 0,-2.069 1.82,-4.206 3.888,-4.206 l 0.506,0 c 1.09,0 2.008,0.6 2.641,1.463 C -7.623,-11.4 -6.596,-12 -5.506,-12 l 0.508,0 c 0.847,0 1.585,0.369 2.173,0.934 C -2.158,-11.631 -1.352,-12 -0.506,-12 L 0,-12 c 2.07,0 3.606,2.137 3.606,4.206 l 0,4.507 c 0,0.063 -0.042,0.118 -0.045,0.18 C 3.474,-1.152 2.007,0 0,0" />
    </g>
    <g
       transform="matrix(1.25,0,0,-1.25,1380.37,895.593)"
       id="g2728">
      <path
         id="path2730"
         style="fill:#db853a;fill-opacity:1;fill-rule:nonzero;stroke:none"
         d="m 0,0 c -10.113,0 -18.311,8.198 -18.311,18.31 0,3.264 0.864,6.321 2.361,8.975 4.967,-1.849 10.339,-2.863 15.95,-2.863 5.61,0 10.982,1.014 15.949,2.862 1.496,-2.653 2.36,-5.711 2.36,-8.974 C 18.309,8.198 10.111,0 0,0 m -25.072,54.379 c 1.117,3.208 3.646,5.759 6.947,7.684 -6.6,1.91 -11.428,7.986 -11.428,15.199 0,8.746 7.088,15.835 15.834,15.835 5.924,0 11.076,-3.255 13.793,-8.069 2.717,4.814 7.869,8.069 13.793,8.069 8.744,0 15.836,-7.089 15.836,-15.835 0,-6.948 -4.482,-12.835 -10.709,-14.969 3.498,-1.948 6.182,-4.578 7.344,-7.914 2.246,-6.461 3.633,-15.129 -10.442,-18.548 -0.839,-2.256 -3.929,-6.584 -15.261,-6.584 -11.405,0 -14.569,4.382 -15.442,6.625 -13.888,3.451 -12.5,12.073 -10.265,18.507 m -19.556,25.846 c -2.954,0.095 -5.321,2.514 -5.321,5.491 0,3.037 2.463,5.5 5.5,5.5 1.227,0 2.357,-0.407 3.273,-1.088 -1.514,-3.118 -2.675,-6.438 -3.452,-9.903 m 89.179,10.991 c 3.037,0 5.5,-2.463 5.5,-5.5 0,-3.011 -2.421,-5.454 -5.421,-5.496 -0.774,3.446 -1.924,6.749 -3.426,9.853 0.928,0.714 2.086,1.143 3.347,1.143 m -35.555,-108 0.508,0 c 1.089,0 2.006,-0.346 2.639,-0.967 0.736,0.621 1.763,0.967 2.853,0.967 l 0.508,0 c 1.089,0 2.006,-0.346 2.639,-0.967 0.736,0.621 1.763,0.967 2.853,0.967 l 0.508,0 c 1.459,0 2.639,-0.616 3.2,-1.7 0.239,0.856 0.403,1.745 0.403,2.648 l 0,7.119 c 0,4.293 -0.544,8.027 -1.422,11.095 2.21,3.928 3.461,8.457 3.461,13.285 0,5.466 -1.628,10.551 -4.41,14.811 2.576,1.478 4.991,3.198 7.22,5.131 9.672,8.389 15.796,20.759 15.796,34.567 0,2.218 -0.167,4.396 -0.473,6.53 4.999,0.276 8.971,4.405 8.971,9.473 0,5.247 -4.254,9.5 -9.5,9.5 -2.094,0 -4.023,-0.685 -5.593,-1.832 -7.666,12.654 -21.293,21.291 -36.987,22.024 0.717,0.849 1.655,1.6 2.521,2.191 0.664,0.453 -0.082,1.352 -0.734,1.102 -1.693,-0.652 -3.003,-1.804 -3.82,-3.242 -0.046,0 -0.091,0 -0.137,0 -0.148,0 -0.295,-0.01 -0.443,-0.01 0.019,0.516 0.045,1.032 0.086,1.548 0.071,0.928 0.283,1.853 0.408,2.774 0.059,0.439 0.638,2.556 0.625,3.67 -0.015,1.223 -0.625,1.431 -0.625,1.431 -0.398,0.138 -0.893,0 -1.133,-0.489 -1.186,-2.422 -1.588,-5.814 -1.471,-8.998 -15.429,-0.848 -28.818,-9.341 -36.448,-21.756 -1.505,0.999 -3.308,1.584 -5.249,1.584 -5.248,0 -9.5,-4.253 -9.5,-9.5 0,-4.9 3.71,-8.931 8.476,-9.443 -0.308,-2.143 -0.476,-4.332 -0.476,-6.56 0,-13.808 6.126,-26.177 15.798,-34.566 2.228,-1.933 4.645,-3.653 7.222,-5.131 -2.783,-4.26 -4.405,-9.346 -4.405,-14.812 0,-4.887 1.326,-9.467 3.587,-13.427 -0.864,-3.041 -1.345,-6.726 -1.345,-10.953 l 0,-7.119 c 0,-0.931 0.118,-1.848 0.379,-2.728 0.659,1.135 2.015,1.78 3.51,1.78 l 0.506,0 c 1.09,0 2.008,-0.346 2.641,-0.967 0.736,0.621 1.763,0.967 2.853,0.967 l 0.508,0 c 0.847,0 1.585,-0.214 2.173,-0.597 0.667,0.383 1.472,0.597 2.319,0.597 l 0.506,0 c 2.007,0 3.474,-1.152 3.561,-3.108 0.639,1.264 1.044,2.643 1.044,4.056 l 0,4.823 c 2,-0.296 3.258,-0.459 4.95,-0.459 1.726,0 3.05,0.169 5.05,0.477 l 0,-4.841 c 0,-0.909 0.136,-1.804 0.421,-2.664 0.673,1.094 2,1.716 3.468,1.716" />
    </g>
    <g
       transform="matrix(1.25,0,0,-1.25,1411.25,918.698)"
       id="g2732">
      <path
         id="path2734"
         style="fill:#ffd6bc;fill-opacity:1;fill-rule:nonzero;stroke:none"
         d="m 0,0 c -0.561,1.083 -1.741,1.7 -3.2,1.7 l -0.508,0 C -4.798,1.7 -5.825,1.354 -6.562,0.732 -7.194,1.354 -8.111,1.7 -9.2,1.7 l -0.508,0 c -1.09,0 -2.117,-0.346 -2.854,-0.968 C -13.194,1.354 -14.111,1.7 -15.2,1.7 l -0.508,0 c -1.468,0 -2.795,-0.622 -3.468,-1.716 -0.276,-0.449 -0.421,-0.969 -0.421,-1.571 l 0,-4.507 c 0,-2.07 1.819,-4.206 3.889,-4.206 l 0.508,0 c 1.089,0 2.006,0.599 2.638,1.462 0.737,-0.863 1.764,-1.462 2.854,-1.462 l 0.508,0 c 1.089,0 2.006,0.599 2.638,1.462 0.737,-0.863 1.764,-1.462 2.854,-1.462 l 0.508,0 c 2.068,0 3.603,2.136 3.603,4.206 l 0,2.316 0,2.191 C 0.403,-0.977 0.233,-0.452 0,0" />
    </g>
    <g
       transform="matrix(1.25,0,0,-1.25,1403.25,872.706)"
       id="g2736">
      <path
         id="path2738"
         style="fill:#ffd6bc;fill-opacity:1;fill-rule:nonzero;stroke:none"
         d="m 0,0 c 0,3.263 -0.863,6.321 -2.359,8.974 -4.967,-1.848 -10.339,-2.862 -15.95,-2.862 -5.611,0 -10.983,1.014 -15.95,2.863 -1.497,-2.654 -2.36,-5.711 -2.36,-8.975 0,-10.112 8.197,-18.31 18.31,-18.31 C -8.197,-18.31 0,-10.112 0,0" />
    </g>
    <g
       transform="matrix(1.25,0,0,-1.25,1361.86,850.752)"
       id="g2740">
      <path
         id="path2742"
         style="fill:#ff9669;fill-opacity:1;fill-rule:nonzero;stroke:none"
         d="m 0,0 c 0.873,-2.244 4.037,-6.626 15.441,-6.626 11.332,0 14.422,4.328 15.262,6.585 C 26.865,-0.974 21.877,-1.518 15.441,-1.518 8.904,-1.518 3.861,-0.959 0,0" />
    </g>
    <g
       transform="matrix(1.25,0,0,-1.25,1352.75,798.139)"
       id="g2744">
      <path
         id="path2746"
         style="fill:#ffd6bc;fill-opacity:1;fill-rule:nonzero;stroke:none"
         d="m 0,0 c 0,4.335 3.514,7.852 7.85,7.852 4.338,0 7.851,-3.517 7.851,-7.852 0,-4.337 -3.513,-7.852 -7.851,-7.852 C 3.514,-7.852 0,-4.337 0,0 m 22.73,-10.129 c 4.932,0 9.176,-0.648 10.971,-2.741 0.154,-0.182 0.356,-0.375 0.467,-0.579 1.41,-2.555 -5.027,-2.043 -3.15,-3.831 0,0 -0.539,-3.321 -8.288,-3.321 -7.75,0 -8.289,3.321 -8.289,3.321 1.875,1.788 -4.56,1.276 -3.15,3.831 0.111,0.204 0.313,0.397 0.469,0.579 1.793,2.093 6.039,2.741 10.97,2.741 M 37.098,7.852 c 4.337,0 7.851,-3.517 7.851,-7.852 0,-4.337 -3.514,-7.852 -7.851,-7.852 -4.336,0 -7.85,3.515 -7.85,7.852 0,4.335 3.514,7.852 7.85,7.852 M 22.73,-43.608 c 6.436,0 11.424,0.544 15.262,1.477 14.074,3.419 12.688,12.086 10.442,18.548 -1.163,3.335 -3.846,5.965 -7.344,7.914 6.226,2.133 10.709,8.02 10.709,14.968 0,8.746 -7.092,15.835 -15.836,15.835 -5.924,0 -11.076,-3.255 -13.793,-8.069 -2.717,4.814 -7.869,8.069 -13.793,8.069 -8.746,0 -15.834,-7.089 -15.834,-15.835 0,-7.213 4.828,-13.289 11.428,-15.199 -3.301,-1.925 -5.83,-4.476 -6.948,-7.683 -2.234,-6.435 -3.623,-15.057 10.266,-18.507 3.861,-0.96 8.904,-1.518 15.441,-1.518" />
    </g>
    <g
       transform="matrix(1.25,0,0,-1.25,1367.45,814.227)"
       id="g2748">
      <path
         id="path2750"
         style="fill:#583b2b;fill-opacity:1;fill-rule:nonzero;stroke:none"
         d="m 0,0 c -0.156,-0.182 -0.357,-0.375 -0.469,-0.579 -1.41,-2.555 5.026,-2.043 3.151,-3.831 0,0 0.539,-3.321 8.289,-3.321 7.748,0 8.287,3.321 8.287,3.321 -1.877,1.788 4.56,1.276 3.15,3.831 C 22.297,-0.375 22.096,-0.182 21.941,0 20.146,2.093 15.902,2.741 10.971,2.741 6.039,2.741 1.793,2.093 0,0" />
    </g>
    <g
       transform="matrix(1.25,0,0,-1.25,1359.06,801.639)"
       id="g2752">
      <path
         id="path2754"
         style="fill:#ffffff;fill-opacity:1;fill-rule:nonzero;stroke:none"
         d="m 0,0 c -0.793,0.746 -1.291,1.802 -1.291,2.978 0,2.261 1.83,4.095 4.092,4.095 2.261,0 4.095,-1.834 4.095,-4.095 C 6.896,2.105 6.621,1.297 6.152,0.632 5.875,1.752 4.998,2.639 3.432,2.639 1.603,2.639 0.414,1.399 0,0 m 10.652,2.8 c 0,4.335 -3.513,7.852 -7.851,7.852 -4.336,0 -7.85,-3.517 -7.85,-7.852 0,-4.337 3.514,-7.851 7.85,-7.851 4.338,0 7.851,3.514 7.851,7.851" />
    </g>
    <g
       transform="matrix(1.25,0,0,-1.25,1366.75,800.849)"
       id="g2756">
      <path
         id="path2758"
         style="fill:#353a42;fill-opacity:1;fill-rule:nonzero;stroke:none"
         d="m 0,0 c 0.469,0.665 0.744,1.473 0.744,2.346 0,2.261 -1.834,4.095 -4.096,4.095 -2.261,0 -4.091,-1.834 -4.091,-4.095 0,-1.176 0.498,-2.232 1.291,-2.978 0.414,1.399 1.603,2.639 3.431,2.639 C -1.154,2.007 -0.277,1.12 0,0" />
    </g>
    <g
       transform="matrix(1.25,0,0,-1.25,1399.12,792.799)"
       id="g2760">
      <path
         id="path2762"
         style="fill:#ffffff;fill-opacity:1;fill-rule:nonzero;stroke:none"
         d="m 0,0 c 2.264,0 4.094,-1.834 4.094,-4.095 0,-1.175 -0.498,-2.232 -1.291,-2.978 -0.414,1.399 -1.604,2.639 -3.432,2.639 -1.566,0 -2.445,-0.887 -2.724,-2.007 -0.465,0.666 -0.741,1.473 -0.741,2.346 C -4.094,-1.834 -2.26,0 0,0 m 0,-12.124 c 4.338,0 7.852,3.515 7.852,7.852 0,4.334 -3.514,7.851 -7.852,7.851 -4.336,0 -7.85,-3.517 -7.85,-7.851 0,-4.337 3.514,-7.852 7.85,-7.852" />
    </g>
    <g
       transform="matrix(1.25,0,0,-1.25,1398.33,798.342)"
       id="g2764">
      <path
         id="path2766"
         style="fill:#353a42;fill-opacity:1;fill-rule:nonzero;stroke:none"
         d="m 0,0 c 1.828,0 3.018,-1.24 3.432,-2.639 0.793,0.746 1.291,1.803 1.291,2.978 0,2.261 -1.83,4.095 -4.094,4.095 -2.26,0 -4.094,-1.834 -4.094,-4.095 0,-0.873 0.276,-1.68 0.74,-2.346 C -2.445,-0.887 -1.566,0 0,0" />
    </g>
    <g
       id="g2768"
       transform="matrix(1.25,0,0,-1.25,578.003,1455.32)">
      <g
         id="g2770" />
      <g
         id="g2776">
        <g
           style="opacity:0.300003"
           id="g2778"
           clip-path="url(#clipPath2772)">
          <g
             id="g2780"
             transform="translate(703.61,498.12)">
            <path
               id="path2782"
               style="fill:#ffffff;fill-opacity:1;fill-rule:nonzero;stroke:none"
               d="m 0,0 c -12.462,4.576 -24.185,-10.802 -29.308,-18.853 -0.801,1.603 -1.635,2.97 -2.458,4.123 9.672,8.388 15.798,20.758 15.798,34.566 0,2.218 -0.166,4.396 -0.472,6.53 4.999,0.276 8.972,4.405 8.972,9.473 0,5.247 -4.254,9.5 -9.5,9.5 -2.094,0 -4.023,-0.685 -5.594,-1.832 -7.666,12.654 -21.292,21.291 -36.986,22.024 0.717,0.849 1.656,1.6 2.522,2.191 0.664,0.453 -0.082,1.352 -0.735,1.102 -1.693,-0.652 -3.003,-1.803 -3.82,-3.242 -0.029,0 -0.058,0 -0.086,0 l 0,-127.392 c 1.709,0 3.379,0.171 5,0.476 l 0,-4.841 c 0,-0.909 0.164,-1.804 0.449,-2.664 -0.276,-0.449 -0.449,-0.969 -0.449,-1.571 l 0,-4.507 c 0,-2.069 1.875,-4.206 3.945,-4.206 l 0.508,0 c 1.089,0 2.006,0.6 2.639,1.462 0.736,-0.862 1.763,-1.462 2.853,-1.462 l 0.508,0 c 1.089,0 2.006,0.6 2.639,1.462 0.736,-0.862 1.763,-1.462 2.853,-1.462 l 0.508,0 c 2.068,0 3.547,2.137 3.547,4.206 l 0,2.317 c 0.58,-0.262 1.199,-0.462 1.857,-0.571 0.416,-0.069 0.829,-0.102 1.239,-0.102 3.601,0 6.779,2.602 7.388,6.273 2.335,14.065 2.599,26.057 0.815,35.797 3.36,5.432 8.905,13.951 13.034,18.08 6.333,6.333 9.667,3 15,0.5 5.333,-2.5 14,6.5 -2.666,12.62" />
          </g>
        </g>
      </g>
    </g>
  </g>
</svg>
